<?xml version="1.0" ?><svg id="Layer_1" style="enable-background:new 0 0 512 512;" version="1.1" viewBox="110 95 295 310" xml:space="preserve" xmlns="http://www.w3.org/2000/svg" xmlns:xlink="http://www.w3.org/1999/xlink"><style type="text/css">
	.st0{fill:#231F20;}
</style><g><path class="st0" d="M373.8,298c-5.4-6.7-11.8-10.5-19.9-12.4c-18.6-4.5-37.4-10.1-56.1-14.2l-21.8,78c0,0-1.5,5-4.4,10.3l-7.5-62   l4.4-10.8c0-3.6-2.9-6.5-6.5-6.5h-12.2c-3.6,0-6.5,2.9-6.5,6.5l4.4,10.8l-7.7,64.2c-4.1-6.1-6.4-12.8-6.4-12.8   s-19.8-77.8-19.8-77.8c-0.4-1.4-49,11.9-53.8,13.7c-14.7,5.5-29.1,15.3-29,32.7c0,0.1,2.2,52.4,2.2,52.4c0,15.7,5.8,26.2,28.4,26.2   h188.8c19.7,0,28.4-10.5,28.4-26.2l2.2-52.3C381,310.7,378.3,303.5,373.8,298z"/><path class="st0" d="M205.6,206.5c8.2,34.9,33.7,55.1,50.4,55.1c17.1,0,43.6-15.1,51-55.1c4.2-0.3,7.8-3.3,10.1-12.5   c2.9-11.9-0.9-18.1-6.7-17.1c-0.4,0.1-0.8,0.2-1.2,0.2c0.2-5.8,0.6-12.8,0.5-18.4c0.3-17.9-2.6-33.8-28.1-37.1   c-1.5-0.4-3.1-0.7-4.8-1c-5.9-1.8-12.7-4.9-20.8-4.9c-49,0-54,20-53.7,42.5c-0.1,5.8,0.3,12.9,0.5,18.9c-0.4-0.1-0.8-0.2-1.3-0.2   c-5.7-1-9.6,5.2-6.7,17.1C197.3,203.6,201.2,206.5,205.6,206.5z"/></g></svg>