<svg xmlns="http://www.w3.org/2000/svg" xmlns:xlink="http://www.w3.org/1999/xlink" viewBox="0 0 1024 1024" width="16" height="16" style="" filter="none">
    
    <g>
    <path d="M637.952 161.792a43.008 43.008 0 0 1 60.8-0.384l227.456 224.256A43.008 43.008 0 0 1 896 459.264H128a43.008 43.008 0 0 1 0-86.016h663.168L638.336 222.592a43.008 43.008 0 0 1-4.928-55.424l4.48-5.376zM896 564.736a43.008 43.008 0 1 1 0 86.016l-663.232-0.064 152.896 150.72a43.008 43.008 0 0 1 4.928 55.424l-4.48 5.376a43.008 43.008 0 0 1-60.864 0.384L97.792 638.336A43.008 43.008 0 0 1 128 564.736h768z" p-id="6957" fill="rgba(134.895,134.895,134.895,1)"></path>
    </g>
  </svg>